<?xml version="1.0" encoding="UTF-8"?>
<svg id="Layer_2" xmlns="http://www.w3.org/2000/svg" viewBox="0 0 104.41 89.44">
  <defs>
    <style>
      .cls-1 {
        fill: #eaeaea;
      }

      .cls-2 {
        fill: #231f20;
      }
    </style>
  </defs>
  <g id="Layer_1-2" data-name="Layer_1">
    <g>
      <g>
        <path class="cls-1" d="M88.45,25.35c-.48-5.67-.54-9.41.19-15.03.47-3.62,1.95-8,4.74-7.87,2.64.12,3.95,4.18,4.56,7.55,4.52,24.9,5.19,50.99,1.96,76.23-5.02-19.94-8.88-40.39-11.52-61.1"/>
        <path class="cls-2" d="M90.95,25.35c-.28-3.38-.46-6.77-.27-10.17.16-2.83.31-6.01,1.48-8.65.22-.49.49-.98.75-1.28.12-.13.25-.26.39-.37-.35.29.4-.29,0,.05h-.17c.31.02.34.01.1,0,.64.45-.29-.36.32.18-.3-.27.31.4.28.36.03.05.33.59.43.79,1.3,2.6,1.54,5.81,2,8.64,2.45,14.98,3.43,30.22,3.08,45.39-.2,8.67-.85,17.33-1.95,25.93l4.91-.66c-5-19.9-8.82-40.09-11.43-60.44-.17-1.34-1.03-2.5-2.5-2.5-1.22,0-2.67,1.15-2.5,2.5,2.08,16.24,4.86,32.39,8.43,48.38,1,4.48,2.06,8.94,3.18,13.39.3,1.19,1.55,1.97,2.74,1.79,1.33-.2,2.01-1.18,2.17-2.46,2.12-16.66,2.57-33.53,1.33-50.29-.62-8.44-1.66-16.86-3.13-25.19-.55-3.12-1.19-6.61-3.42-9.02s-5.89-2.27-7.99.2c-2.48,2.93-2.95,7.02-3.31,10.69-.42,4.25-.28,8.48.07,12.73.11,1.35,1.07,2.5,2.5,2.5,1.27,0,2.61-1.15,2.5-2.5h0Z"/>
      </g>
      <g>
        <path class="cls-1" d="M16.06,25.88c.48-5.67.44-9.41-.29-15.03-.47-3.62-1.95-8-4.74-7.87-2.64.12-3.95,4.18-4.56,7.55C1.95,35.42,1.28,61.52,4.51,86.75c5.02-19.94,8.88-40.39,11.52-61.1"/>
        <path class="cls-2" d="M18.56,25.88c.3-3.67.43-7.33.14-11s-.6-7.25-2.2-10.48C15.13,1.61,12.21-.45,9.08.94c-2.92,1.3-4.13,4.84-4.78,7.72-.88,3.89-1.4,7.89-1.93,11.84-.58,4.27-1.07,8.55-1.44,12.85C.21,41.68-.09,50.05.02,58.41c.13,9.48.8,18.94,1.99,28.34.16,1.23.83,2.3,2.17,2.46,1.2.14,2.43-.56,2.74-1.79,3.96-15.77,7.18-31.72,9.65-47.79.71-4.65,1.36-9.31,1.96-13.98.17-1.34-1.27-2.5-2.5-2.5-1.49,0-2.33,1.15-2.5,2.5-2.61,20.35-6.43,40.54-11.43,60.44l4.91.66c-1.93-15.15-2.47-30.47-1.63-45.72.42-7.62,1.18-15.22,2.32-22.77.51-3.37.87-6.92,1.93-10.17.32-.99.78-1.78,1.32-2.5-.21.28.37-.24-.02-.06.54-.26-.25-.03.35-.06-.39.02-.25-.27-.09.03-.17-.32.27.24.3.28,1.77,1.98,1.94,6.02,2.16,8.67.32,3.81.21,7.62-.11,11.43-.11,1.35,1.23,2.5,2.5,2.5,1.45,0,2.39-1.15,2.5-2.5h0Z"/>
      </g>
    </g>
  </g>
</svg>