<?xml version="1.0" encoding="UTF-8"?>
<svg id="Layer_2" xmlns="http://www.w3.org/2000/svg" viewBox="0 0 79.3 94.54">
  <defs>
    <style>
      .cls-1 {
        fill: #eaeaea;
      }

      .cls-2 {
        fill: #231f20;
      }
    </style>
  </defs>
  <g id="Layer_1-2" data-name="Layer_1">
    <g>
      <g>
        <path class="cls-1" d="M68.49,26.13c-.29-5.92-.2-9.54.25-15.42.28-3.78,1.19-8.35,2.88-8.22,1.6.13,2.4,4.36,2.77,7.89,2.75,26,3.15,53.25,1.19,79.61-3.05-20.83-5.39-42.18-7-63.82"/>
        <path class="cls-2" d="M70.99,26.13c-.17-3.44-.22-6.88-.07-10.33.14-3.16.2-6.43,1-9.5.07-.27.15-.54.23-.81-.02.07.35-.83.18-.5l.12-.23c.17-.26.17-.28,0-.06l.14-.14c-.42.39-.92.52-1.48.37-.06-.02-.67-.23-.61-.39.01-.03.36.65.23.37.33.71.49,1.54.65,2.3.72,3.36.88,6.87,1.18,10.28,1.37,15.42,1.91,30.92,1.67,46.4-.14,8.71-.53,17.41-1.17,26.09l4.91-.66c-2.38-16.25-4.28-32.57-5.74-48.93-.42-4.74-.81-9.47-1.16-14.22-.1-1.35-1.08-2.5-2.5-2.5-1.28,0-2.6,1.15-2.5,2.5,1.25,16.79,2.94,33.55,5.12,50.25.62,4.75,1.27,9.49,1.97,14.23.18,1.21,1.65,1.96,2.74,1.79,1.28-.19,2.07-1.18,2.17-2.46,1.26-17,1.54-34.06.87-51.09-.34-8.49-.91-16.98-1.74-25.44-.35-3.56-.48-7.44-2-10.74-1.42-3.09-5.17-3.67-7-.59-1.94,3.26-1.93,7.69-2.16,11.35-.26,4.22-.26,8.42-.05,12.64.15,3.2,5.15,3.22,5,0h0Z"/>
      </g>
      <g>
        <path class="cls-1" d="M10.69,26.13c.29-5.92.32-9.55-.13-15.42-.28-3.78-1.19-8.35-2.88-8.22-1.6.13-2.4,4.36-2.77,7.89-2.75,26-3.15,53.25-1.19,79.61,3.05-20.83,5.39-42.18,7-63.82"/>
        <path class="cls-2" d="M13.19,26.13c.18-3.72.29-7.44.13-11.16s-.23-7.39-1.35-10.82c-.45-1.38-1.11-2.85-2.39-3.64-1.41-.88-3.22-.58-4.38.57-2.21,2.2-2.45,6.2-2.77,9.1C.56,27.1-.14,44.19.02,61.22c.09,9.6.49,19.19,1.2,28.76.09,1.24.88,2.3,2.17,2.46,1.11.13,2.56-.55,2.74-1.79,2.43-16.61,4.4-33.3,5.9-50.02.43-4.82.83-9.64,1.19-14.46.1-1.35-1.22-2.5-2.5-2.5-1.44,0-2.4,1.15-2.5,2.5-1.23,16.55-2.9,33.07-5.03,49.54-.59,4.54-1.22,9.08-1.88,13.61l4.91.66c-1.16-15.63-1.49-31.31-1.01-46.98.24-7.72.67-15.43,1.31-23.13.3-3.59.54-7.21,1.05-10.77.19-1.3.41-2.68.88-3.91.11-.29.19-.19.21-.45.04-.47.2.01-.2.07l-.28.1c-.57.14-1.06.02-1.48-.37.18.19.19.19.02-.01.09.14.17.29.25.44.42.84.74,2.6.91,3.8.27,1.98.35,3.99.44,5.99.17,3.79.06,7.58-.12,11.37-.16,3.22,4.84,3.21,5,0h0Z"/>
      </g>
    </g>
  </g>
</svg>