<?xml version="1.0" encoding="UTF-8"?>
<svg id="Layer_2" xmlns="http://www.w3.org/2000/svg" viewBox="0 0 18.8 88.91">
  <defs>
    <style>
      .cls-1 {
        fill: #eaeaea;
      }

      .cls-2 {
        fill: #231f20;
      }
    </style>
  </defs>
  <g id="Layer_1-2" data-name="Layer_1">
    <g>
      <path class="cls-1" d="M2.83,25.35c-.48-5.67-.54-9.41.19-15.03.47-3.62,1.95-8,4.74-7.87,2.64.12,3.95,4.18,4.56,7.55,4.52,24.9,5.19,50.99,1.96,76.23C9.26,66.28,5.41,45.83,2.76,25.12"/>
      <path class="cls-2" d="M5.33,25.35c-.28-3.38-.46-6.77-.27-10.17.16-2.83.31-6.01,1.48-8.65.22-.49.49-.98.75-1.28.12-.13.25-.26.39-.37-.35.29.4-.29,0,.05h-.17c.31.02.34.01.1,0,.64.45-.29-.36.32.18-.3-.27.31.4.28.36.03.05.33.59.43.79,1.3,2.6,1.54,5.81,2,8.64,2.45,14.98,3.43,30.22,3.08,45.39-.2,8.67-.85,17.33-1.95,25.93l4.91-.66c-5-19.9-8.82-40.09-11.43-60.44-.17-1.34-1.03-2.5-2.5-2.5-1.22,0-2.67,1.15-2.5,2.5,2.08,16.24,4.86,32.39,8.43,48.38,1,4.48,2.06,8.94,3.18,13.39.3,1.19,1.55,1.97,2.74,1.79,1.33-.2,2.01-1.18,2.17-2.46,2.12-16.66,2.57-33.53,1.33-50.29-.62-8.44-1.66-16.86-3.13-25.19-.55-3.12-1.19-6.61-3.42-9.02s-5.89-2.27-7.99.2C1.09,4.86.62,8.95.26,12.62c-.42,4.25-.28,8.48.07,12.73.11,1.35,1.07,2.5,2.5,2.5,1.27,0,2.61-1.15,2.5-2.5h0Z"/>
    </g>
  </g>
</svg>