<svg width="28" height="98" viewBox="0 0 28 98" fill="none" xmlns="http://www.w3.org/2000/svg">
<path d="M24.9599 27.94C25.7599 21.66 25.7199 17.44 24.5099 11.21C23.7399 7.21002 21.2699 2.35002 16.6499 2.49002C12.2799 2.62002 10.0999 7.12002 9.07995 10.85C1.57995 38.44 0.469945 67.34 5.83995 95.3C14.1699 73.21 20.5599 50.56 24.9399 27.61" fill="#EAEAEA"/>
<path d="M27.46 27.94C28 23.64 28.19 19.35 27.64 15.04C27.16 11.28 26.57 7.31002 24.28 4.16002C21.99 1.01002 18.51 -0.709982 14.68 0.270018C10.85 1.25002 8.73997 4.58002 7.41997 7.94002C5.83997 11.95 5.04997 16.4 4.15997 20.6C3.14997 25.38 2.32997 30.2 1.68997 35.04C0.419968 44.49 -0.140032 54.03 0.0299676 63.57C0.229968 74.44 1.38997 85.29 3.42997 95.97C3.62997 97.04 4.80997 97.81 5.83997 97.81C7.00997 97.81 7.85997 97.02 8.24997 95.97C14.7 78.84 20.03 61.29 24.15 43.46C25.31 38.42 26.38 33.36 27.35 28.29C27.6 26.97 26.98 25.59 25.6 25.21C24.38 24.87 22.78 25.62 22.52 26.96C19.08 44.9 14.45 62.6 8.64997 79.92C6.99997 84.86 5.24997 89.77 3.40997 94.65H8.22997C4.95997 77.52 4.16997 59.94 5.79997 42.58C6.61997 33.83 8.09997 25.15 10.17 16.62C10.94 13.43 11.5 9.74002 13.47 7.00002C14.85 5.09002 17.19 4.36002 18.98 5.75002C21.6 7.78002 22.15 11.77 22.59 14.86C23.2 19.22 22.98 23.6 22.44 27.96C22.27 29.3 23.71 30.46 24.94 30.46C26.43 30.46 27.27 29.31 27.44 27.96L27.46 27.94Z" fill="#231F20"/>
</svg>
