<?xml version="1.0" encoding="UTF-8"?>
<svg id="Layer_2" xmlns="http://www.w3.org/2000/svg" viewBox="0 0 137.46 97.8">
  <defs>
    <style>
      .cls-1 {
        fill: #eaeaea;
      }

      .cls-2 {
        fill: #231f20;
      }
    </style>
  </defs>
  <g id="Layer_1-2" data-name="Layer_1">
    <g>
      <g>
        <path class="cls-1" d="M112.49,27.35c-.8-6.28-.74-9.91.47-16.14.77-4,3.24-8.86,7.86-8.72,4.37.13,6.55,4.63,7.57,8.36,7.5,27.58,8.61,56.48,3.24,84.44-8.33-22.09-14.72-44.74-19.1-67.69"/>
        <path class="cls-2" d="M114.99,27.35c-.47-3.79-.71-7.56-.29-11.37.33-3.02.79-6.36,2.54-8.91,1.29-1.88,3.59-2.85,5.58-1.34,2.25,1.71,2.97,5.02,3.65,7.63,4.43,16.98,6.43,34.55,5.93,52.09-.28,9.8-1.34,19.55-3.18,29.18h4.82c-6.45-17.13-11.78-34.68-15.9-52.51-1.16-5.04-2.23-10.1-3.2-15.17-.25-1.33-1.85-2.08-3.08-1.75-1.39.38-2,1.74-1.75,3.08,3.44,17.94,8.07,35.64,13.87,52.96,1.65,4.94,3.4,9.85,5.24,14.73.39,1.04,1.24,1.84,2.41,1.84,1.04,0,2.21-.77,2.41-1.84,3.6-18.9,4.4-38.29,2.19-57.4-1.11-9.56-2.84-19.09-5.43-28.36-.94-3.35-2.5-6.74-5.44-8.77-3.22-2.22-7.53-1.72-10.42.77-3.14,2.71-4.21,6.93-4.83,10.85-.76,4.82-.72,9.48-.11,14.31.17,1.34,1.03,2.5,2.5,2.5,1.22,0,2.67-1.15,2.5-2.5h0Z"/>
      </g>
      <g>
        <path class="cls-1" d="M24.96,27.94c.8-6.28.76-10.5-.45-16.73-.77-4-3.24-8.86-7.86-8.72-4.37.13-6.55,4.63-7.57,8.36C1.58,38.44.47,67.34,5.84,95.3c8.33-22.09,14.72-44.74,19.1-67.69"/>
        <path class="cls-2" d="M27.46,27.94c.54-4.3.73-8.59.18-12.9-.48-3.76-1.07-7.73-3.36-10.88S18.51-.71,14.68.27s-5.94,4.31-7.26,7.67c-1.58,4.01-2.37,8.46-3.26,12.66-1.01,4.78-1.83,9.6-2.47,14.44C.42,44.49-.14,54.03.03,63.57c.2,10.87,1.36,21.72,3.4,32.4.2,1.07,1.38,1.84,2.41,1.84,1.17,0,2.02-.79,2.41-1.84,6.45-17.13,11.78-34.68,15.9-52.51,1.16-5.04,2.23-10.1,3.2-15.17.25-1.32-.37-2.7-1.75-3.08-1.22-.34-2.82.41-3.08,1.75-3.44,17.94-8.07,35.64-13.87,52.96-1.65,4.94-3.4,9.85-5.24,14.73h4.82c-3.27-17.13-4.06-34.71-2.43-52.07.82-8.75,2.3-17.43,4.37-25.96.77-3.19,1.33-6.88,3.3-9.62,1.38-1.91,3.72-2.64,5.51-1.25,2.62,2.03,3.17,6.02,3.61,9.11.61,4.36.39,8.74-.15,13.1-.17,1.34,1.27,2.5,2.5,2.5,1.49,0,2.33-1.15,2.5-2.5h0Z"/>
      </g>
    </g>
  </g>
</svg>