<?xml version="1.0" encoding="UTF-8"?>
<svg id="Layer_2" xmlns="http://www.w3.org/2000/svg" viewBox="0 0 13.46 94.45">
  <defs>
    <style>
      .cls-1 {
        fill: #eaeaea;
      }

      .cls-2 {
        fill: #231f20;
      }
    </style>
  </defs>
  <g id="Layer_1-2" data-name="Layer_1">
    <g>
      <path class="cls-1" d="M2.65,26.03c-.29-5.92-.2-9.54.25-15.42.28-3.78,1.19-8.35,2.88-8.22,1.6.13,2.4,4.36,2.77,7.89,2.75,26,3.15,53.25,1.19,79.61-3.05-20.83-5.39-42.18-7-63.82"/>
      <path class="cls-2" d="M5.15,26.03c-.17-3.44-.22-6.88-.07-10.33.14-3.16.2-6.43,1-9.5.07-.27.15-.54.23-.81-.02.07.35-.83.18-.5l.12-.23c.17-.26.17-.28,0-.06l.14-.14c-.42.39-.92.52-1.48.37-.06-.02-.67-.23-.61-.39.01-.03.36.65.23.37.33.71.49,1.54.65,2.3.72,3.36.88,6.87,1.18,10.28,1.37,15.42,1.91,30.92,1.67,46.4-.14,8.71-.53,17.41-1.17,26.09l4.91-.66c-2.38-16.25-4.28-32.57-5.74-48.93-.42-4.74-.81-9.47-1.16-14.22-.1-1.35-1.08-2.5-2.5-2.5-1.28,0-2.6,1.15-2.5,2.5,1.25,16.79,2.94,33.55,5.12,50.25.62,4.75,1.27,9.49,1.97,14.23.18,1.21,1.65,1.96,2.74,1.79,1.28-.19,2.07-1.18,2.17-2.46,1.26-17,1.54-34.06.87-51.09-.34-8.49-.91-16.98-1.74-25.44-.35-3.56-.48-7.44-2-10.74C7.94-.46,4.19-1.04,2.36,2.04.42,5.29.43,9.73.2,13.39c-.26,4.22-.26,8.42-.05,12.64.15,3.2,5.15,3.22,5,0h0Z"/>
    </g>
  </g>
</svg>