<svg width="29" height="98" viewBox="0 0 29 98" fill="none" xmlns="http://www.w3.org/2000/svg">
<path d="M3.48994 27.35C2.68994 21.07 2.74994 17.44 3.95994 11.21C4.72994 7.21002 7.19995 2.35002 11.8199 2.49002C16.1899 2.62002 18.3699 7.12002 19.3899 10.85C26.8899 38.43 27.9999 67.33 22.6299 95.29C14.2999 73.2 7.90994 50.55 3.52994 27.6" fill="#EAEAEA"/>
<path d="M5.98998 27.35C5.51998 23.56 5.27998 19.79 5.69998 15.98C6.02998 12.96 6.48998 9.61999 8.23998 7.06999C9.52998 5.18999 11.83 4.21999 13.82 5.72999C16.07 7.43999 16.79 10.75 17.47 13.36C21.9 30.34 23.9 47.91 23.4 65.45C23.12 75.25 22.06 85 20.22 94.63H25.04C18.59 77.5 13.26 59.95 9.13998 42.12C7.97998 37.08 6.90998 32.02 5.93998 26.95C5.68998 25.62 4.08998 24.87 2.85998 25.2C1.46998 25.58 0.85998 26.94 1.10998 28.28C4.54998 46.22 9.17998 63.92 14.98 81.24C16.63 86.18 18.38 91.09 20.22 95.97C20.61 97.01 21.46 97.81 22.63 97.81C23.67 97.81 24.84 97.04 25.04 95.97C28.64 77.07 29.44 57.68 27.23 38.57C26.12 29.01 24.39 19.48 21.8 10.21C20.86 6.85999 19.3 3.46999 16.36 1.43999C13.14 -0.780011 8.82998 -0.280011 5.93998 2.20999C2.79998 4.91999 1.72998 9.13999 1.10998 13.06C0.34998 17.88 0.389979 22.54 0.999979 27.37C1.16998 28.71 2.02998 29.87 3.49998 29.87C4.71998 29.87 6.16998 28.72 5.99998 27.37L5.98998 27.35Z" fill="#231F20"/>
</svg>
