<?xml version="1.0" encoding="UTF-8"?>
<svg id="Layer_2" xmlns="http://www.w3.org/2000/svg" viewBox="0 0 18.87 88.94">
  <defs>
    <style>
      .cls-1 {
        fill: #eaeaea;
      }

      .cls-2 {
        fill: #231f20;
      }
    </style>
  </defs>
  <g id="Layer_1-2" data-name="Layer_1">
    <g>
      <path class="cls-1" d="M16.06,25.38c.48-5.67.44-9.41-.29-15.03-.47-3.62-1.95-8-4.74-7.87-2.64.12-3.95,4.18-4.56,7.55C1.95,34.93,1.28,61.02,4.51,86.26c5.02-19.94,8.88-40.39,11.52-61.1"/>
      <path class="cls-2" d="M18.56,25.38c.3-3.67.43-7.33.14-11s-.6-7.25-2.2-10.48C15.13,1.11,12.21-.94,9.08.44c-2.92,1.3-4.13,4.84-4.78,7.72-.88,3.89-1.4,7.89-1.93,11.84-.58,4.27-1.07,8.55-1.44,12.85C.21,41.18-.09,49.55.02,57.91c.13,9.48.8,18.94,1.99,28.34.16,1.23.83,2.3,2.17,2.46,1.2.14,2.43-.56,2.74-1.79,3.96-15.77,7.18-31.72,9.65-47.79.71-4.65,1.36-9.31,1.96-13.98.17-1.34-1.27-2.5-2.5-2.5-1.49,0-2.33,1.15-2.5,2.5-2.61,20.35-6.43,40.54-11.43,60.44l4.91.66c-1.93-15.15-2.47-30.47-1.63-45.72.42-7.62,1.18-15.22,2.32-22.77.51-3.37.87-6.92,1.93-10.17.32-.99.78-1.78,1.32-2.5-.21.28.37-.24-.02-.06.54-.26-.25-.03.35-.06-.39.02-.25-.27-.09.03-.17-.32.27.24.3.28,1.77,1.98,1.94,6.02,2.16,8.67.32,3.81.21,7.62-.11,11.43-.11,1.35,1.23,2.5,2.5,2.5,1.45,0,2.39-1.15,2.5-2.5h0Z"/>
    </g>
  </g>
</svg>