<svg width="35" height="34" viewBox="0 0 35 34" fill="none" xmlns="http://www.w3.org/2000/svg">
<path d="M4.72005 9.28006C1.30005 15.3401 3.02005 23.8101 8.56005 28.0401C14.1001 32.2701 22.7401 31.6801 27.6301 26.7201C32.5201 21.7601 32.9901 13.0901 28.6301 7.66006C24.2701 2.23006 15.6601 0.810064 9.81005 4.58006C3.96005 8.35006 1.70005 16.8001 4.91005 22.9701" fill="#EAEAEA"/>
<path d="M2.56006 8.02003C-1.24994 14.98 0.29006 24.52 6.53006 29.6C12.7701 34.68 22.6601 34.51 28.7901 29.05C34.9201 23.59 35.8501 13.75 31.3701 7.19003C26.8901 0.630026 17.3401 -1.86997 9.97006 1.63003C1.77006 5.52003 -1.20994 16.37 2.76006 24.23C3.37006 25.44 5.07006 25.78 6.18006 25.13C7.41006 24.41 7.69006 22.92 7.08006 21.71C4.68006 16.96 6.18006 10.37 10.5501 7.10003C14.9201 3.83003 21.9201 4.42003 25.8801 8.34003C29.8401 12.26 30.1501 19.43 26.7501 23.95C23.3501 28.47 16.3601 29.63 11.4801 26.96C5.80006 23.85 3.85006 16.08 6.88006 10.55C8.43006 7.73003 4.11006 5.20003 2.56006 8.03003V8.02003Z" fill="#231F20"/>
</svg>
