<?xml version="1.0" encoding="UTF-8"?>
<svg id="Layer_2" xmlns="http://www.w3.org/2000/svg" viewBox="0 0 65.98 134.13">
  <defs>
    <style>
      .cls-1 {
        fill: #eaeaea;
      }

      .cls-2 {
        fill: #231f20;
      }
    </style>
  </defs>
  <g id="Layer_1-2" data-name="Layer_1">
    <g>
      <g>
        <path class="cls-1" d="M50.18,131.21c-2.88-.23-5.75-.59-8.59-1.06-.81-.14-1.66-.3-2.29-.76-1.14-.84-1.13-2.33-1.03-3.62,2.81-35.66-.95-71.43-1.6-107.16-.06-3.4-.08-6.87,1.12-10.11s12.45-4.91,16.19-6c3.8,18.84,3.41,38.29-1.13,57.02-.75,3.1-1.62,6.19-2.04,9.33-.51,3.75-.38,7.54-.25,11.32.47,13.72.94,27.45,1.4,41.17,4.76-.22,9.52,2.45,11.16,6.25.37.86.58,1.87.04,2.67-.75,1.12-2.53,1.29-4.05,1.29-2.99.02-5.97-.1-8.94-.34Z"/>
        <path class="cls-2" d="M50.18,128.71c-2.57-.21-5.14-.51-7.69-.93-.35-.06-1.45-.11-1.68-.38-.43-.51.03-2.49.08-3.11.4-5.36.65-10.73.78-16.1.28-10.83.09-21.66-.27-32.49s-.92-21.51-1.39-32.26c-.24-5.46-.46-10.92-.62-16.38-.08-2.65-.15-5.29-.2-7.94-.04-2.37-.16-4.81.27-7.15.12-.66.27-1.31.47-1.95.08-.28.17-.59.29-.85-.11.25-.1.35-.15.32.04.03-.22.14.07-.07.12-.09.22-.21.34-.31-.43.37.26-.15.43-.25,1.28-.74,2.6-1.15,4.27-1.63,3.13-.9,6.35-1.42,9.48-2.32l-3.08-1.75c2.97,14.88,3.34,30.33.95,45.33-.61,3.8-1.38,7.56-2.31,11.29s-1.81,7.27-2.12,11.03-.09,7.9.04,11.84.27,7.94.41,11.91c.3,8.93.61,17.86.91,26.79.05,1.32,1.11,2.54,2.5,2.5,3.33-.1,7.28,1.34,8.78,4.56.1.22.13.57.24.75-.53-.79.95-.25-.06-.28-.33,0-.75.15-1.1.17-.57.04-1.14.02-1.71.02-2.65-.01-5.3-.13-7.95-.34-1.35-.11-2.5,1.22-2.5,2.5,0,1.44,1.15,2.39,2.5,2.5,3.39.27,6.99.63,10.38.26,1.47-.16,2.98-.53,4.08-1.6,1.31-1.28,1.62-3.15,1.11-4.87-1.67-5.68-8.22-8.83-13.77-8.66l2.5,2.5c-.27-8.02-.55-16.04-.82-24.06-.14-4.05-.28-8.1-.41-12.15s-.38-7.91-.26-11.86.91-7.5,1.84-11.23,1.75-7.48,2.39-11.28c1.27-7.62,1.93-15.33,1.88-23.06-.05-8.68-.98-17.36-2.68-25.87-.26-1.32-1.85-2.1-3.08-1.75-2.93.84-5.96,1.34-8.9,2.15s-6.71,1.8-8.49,4.47c-1.21,1.81-1.47,4.46-1.66,6.57-.24,2.68-.11,5.38-.05,8.07.13,5.79.33,11.58.57,17.37.95,22.98,2.44,45.96,1.88,68.97-.08,3.22-.2,6.44-.36,9.66s-.57,6.17-.59,9.24,1.73,5.29,4.78,5.89,6.44.95,9.66,1.22c1.35.11,2.5-1.23,2.5-2.5,0-1.45-1.15-2.39-2.5-2.5Z"/>
      </g>
      <g>
        <path class="cls-1" d="M15.8,131.21c2.88-.23,5.75-.59,8.59-1.06.81-.14,1.66-.3,2.29-.76,1.14-.84,1.13-2.33,1.03-3.62-2.81-35.66.95-71.43,1.6-107.16.06-3.4.08-6.87-1.12-10.11S15.73,3.59,11.98,2.5c-3.8,18.84-3.41,38.29,1.13,57.02.75,3.1,1.62,6.19,2.04,9.33.51,3.75.38,7.54.25,11.32-.47,13.72-.94,27.45-1.4,41.17-4.76-.22-9.52,2.45-11.16,6.25-.37.86-.58,1.87-.04,2.67.75,1.12,2.53,1.29,4.05,1.29,2.99.02,5.97-.1,8.94-.34Z"/>
        <path class="cls-2" d="M15.8,133.71c2.86-.24,5.71-.58,8.54-1.03,2.61-.41,5.09-1.41,5.72-4.26.55-2.49-.08-5.33-.23-7.84-.18-2.89-.32-5.78-.42-8.67-.41-11.49-.27-22.98.1-34.47s.97-23,1.47-34.5c.25-5.79.48-11.58.65-17.37.15-5.31.77-11.03-.58-16.23-.53-2.05-1.39-3.48-3.18-4.62-1.52-.97-3.32-1.57-5.03-2.1-3.35-1.03-6.83-1.56-10.19-2.53-1.23-.35-2.81.43-3.08,1.75-3.07,15.35-3.46,31.08-1.17,46.56.56,3.8,1.29,7.58,2.19,11.32s1.97,7.32,2.28,11.1.09,7.9-.04,11.84-.27,7.94-.41,11.91c-.3,8.93-.61,17.86-.91,26.79l2.5-2.5c-5.55-.16-12.1,2.98-13.77,8.66-.48,1.64-.24,3.51,1,4.77,1.12,1.14,2.65,1.54,4.19,1.71,3.39.37,6.99,0,10.38-.26,1.35-.11,2.5-1.07,2.5-2.5,0-1.27-1.15-2.61-2.5-2.5-2.65.21-5.3.33-7.95.34-.57,0-1.14.02-1.71-.02-.35-.02-.77-.18-1.1-.17-1.02.03.47-.51-.06.28.12-.18.14-.53.24-.75,1.5-3.22,5.45-4.66,8.78-4.56,1.38.04,2.45-1.18,2.5-2.5.27-7.94.54-15.87.81-23.81s.86-15.86.7-23.77-2.72-14.94-4.08-22.43-2.02-15.07-2.04-22.66c-.01-8.56.82-17.1,2.5-25.5l-3.08,1.75c2.74.79,5.57,1.26,8.32,1.99,1.48.39,2.97.81,4.38,1.41-.26-.11.4.19.54.27.27.14.53.29.79.44.12.07.23.15.35.23-.08-.05-.36-.33-.05-.03.08.08.17.17.25.25.33.3-.18-.28-.05-.05.18.31-.21-.74-.01-.05.08.29.19.57.27.85.14.5.27,1,.36,1.51.24,1.24.3,2.5.33,3.75.06,2.53-.05,5.06-.11,7.58-.14,5.46-.34,10.92-.56,16.38-.9,21.58-2.26,43.15-1.92,64.76.09,6.03.32,12.07.73,18.09.09,1.37.26,2.75.29,4.12.02.82.11.97-.7,1.16-2.84.66-5.84.88-8.74,1.12-1.35.11-2.5,1.07-2.5,2.5,0,1.27,1.15,2.61,2.5,2.5Z"/>
      </g>
    </g>
  </g>
</svg>