<?xml version="1.0" encoding="UTF-8"?>
<svg id="Layer_2" xmlns="http://www.w3.org/2000/svg" viewBox="0 0 83.5 134.07">
  <defs>
    <style>
      .cls-1 {
        fill: #eaeaea;
      }

      .cls-2 {
        fill: #231f20;
      }
    </style>
  </defs>
  <g id="Layer_1-2" data-name="Layer_1">
    <g>
      <g>
        <path class="cls-1" d="M63.3,131.19c-3.83-.23-7.65-.59-11.43-1.06-1.08-.14-2.21-.3-3.04-.76-1.52-.84-1.5-2.33-1.37-3.62,3.75-35.66-1.27-71.43-2.13-107.16-.08-3.4-.11-6.87,1.49-10.11s16.57-4.91,21.56-6c5.06,18.84,4.54,38.29-1.51,57.02-1,3.1-2.16,6.19-2.72,9.33-.67,3.75-.5,7.54-.33,11.32.62,13.72,1.25,27.45,1.87,41.17,6.34-.22,12.67,2.45,14.85,6.25.5.86.77,1.87.06,2.67-1,1.12-3.37,1.29-5.39,1.29-3.97.02-7.95-.1-11.91-.34Z"/>
        <path class="cls-2" d="M63.3,128.69c-2.87-.18-5.73-.42-8.59-.73-1.2-.13-2.41-.22-3.59-.46-.93-.19-1.2-.17-1.21-.84-.03-1.19.22-2.44.33-3.62.14-1.56.27-3.12.39-4.68.21-2.87.37-5.75.48-8.63.47-11.76.19-23.54-.37-35.3s-1.38-23.39-2.03-35.08c-.33-5.93-.61-11.86-.79-17.79-.08-2.73-.33-5.58.06-8.3.15-1.04.4-2.12.81-3.09-.02.05.27-.47.29-.58.06-.27-.29.46-.15.2.04-.07.19-.22.26-.25-.22.1-.39.24-.06.05.27-.15.52-.32.8-.46.15-.08.31-.15.46-.22-.33.15-.08.03.12-.05.79-.3,1.58-.56,2.39-.79,1.89-.54,3.82-.95,5.75-1.32,3.45-.67,6.96-1.12,10.39-1.86l-3.08-1.75c3.91,14.72,4.44,30.2,1.3,45.12-.78,3.72-1.78,7.4-2.96,11.01s-2.41,7.17-2.88,10.96-.21,7.94-.03,11.89.36,7.94.54,11.91c.41,9.09.83,18.19,1.24,27.28.06,1.32,1.1,2.53,2.5,2.5,4.19-.1,10.31,1.02,12.61,4.89.03.05.31.53.25.54l.11-.58c.29-.23.32-.28.11-.13-.29,0-.86.31-1.19.37-1.33.23-2.76.14-4.11.13-3.39-.02-6.78-.14-10.17-.34s-3.2,4.81,0,5c4.21.25,8.46.46,12.67.33,1.72-.05,3.65-.21,5.18-1.09,1.87-1.08,2.75-3.08,2.16-5.18-.86-3.06-3.96-5.37-6.69-6.66-3.41-1.61-7.17-2.36-10.94-2.27l2.5,2.5c-.37-8.18-.74-16.37-1.12-24.55-.18-4.05-.37-8.1-.55-12.15s-.52-8.02-.29-12.02c.2-3.7,1.31-7.17,2.47-10.66,1.25-3.76,2.35-7.55,3.2-11.42,1.65-7.53,2.49-15.27,2.43-22.98-.08-8.67-1.3-17.34-3.53-25.72-.36-1.36-1.76-2.03-3.08-1.75-6.63,1.43-13.83,1.67-20.04,4.61-4.18,1.98-4.8,7.06-4.87,11.25-.1,6.07.32,12.18.62,18.23,1.25,24.92,3.62,49.85,2.7,74.83-.13,3.46-.32,6.91-.58,10.36-.13,1.73-.28,3.45-.46,5.18-.13,1.36-.32,2.68.07,4.02,1,3.43,4.67,3.85,7.66,4.21,3.49.42,6.98.73,10.48.94,3.21.2,3.2-4.8,0-5Z"/>
      </g>
      <g>
        <path class="cls-1" d="M20.2,131.19c3.83-.23,7.65-.59,11.43-1.06,1.08-.14,2.21-.3,3.04-.76,1.52-.84,1.5-2.33,1.37-3.62-3.75-35.66,1.27-71.43,2.13-107.16.08-3.4.11-6.87-1.49-10.11-1.61-3.25-16.57-4.91-21.56-6-5.06,18.84-4.54,38.29,1.51,57.02,1,3.1,2.16,6.19,2.72,9.33.67,3.75.5,7.54.33,11.32-.62,13.72-1.25,27.45-1.87,41.17-6.34-.22-12.67,2.45-14.85,6.25-.5.86-.77,1.87-.06,2.67,1,1.12,3.37,1.29,5.39,1.29,3.97.02,7.95-.1,11.91-.34Z"/>
        <path class="cls-2" d="M20.2,133.69c3.03-.19,6.05-.44,9.06-.78,2.68-.3,6.05-.28,8-2.45s1.22-5.09.98-7.67c-.29-3.12-.51-6.24-.67-9.37-.66-12.41-.44-24.86.12-37.27s1.45-24.87,2.13-37.3c.34-6.26.64-12.51.81-18.78.08-2.94.18-5.9-.4-8.81-.43-2.17-1.17-4.41-3-5.76-2.85-2.09-6.91-2.76-10.3-3.43-3.7-.74-7.46-1.21-11.15-2.01-1.31-.28-2.71.38-3.08,1.75-4.03,15.14-4.6,31.01-1.59,46.39.73,3.73,1.67,7.42,2.8,11.04s2.66,7.34,3.16,11.18.19,7.49.02,11.2c-.19,4.13-.38,8.27-.56,12.4-.41,9.09-.83,18.19-1.24,27.28l2.5-2.5c-3.71-.09-7.4.63-10.77,2.19-2.8,1.29-5.98,3.62-6.86,6.74-.57,2.02.23,4.03,2.03,5.1,1.51.91,3.39,1.09,5.12,1.16,4.28.16,8.6-.06,12.87-.32,3.2-.19,3.22-5.19,0-5s-6.61.31-9.92.34c-1.42,0-2.91.11-4.31-.12-.37-.06-.76-.24-1.1-.3-.29-.2-.34-.22-.14-.05.22.15.29.38.23.69-.07-.01.19-.44.25-.54,2.29-3.87,8.43-4.99,12.61-4.89,1.4.03,2.44-1.17,2.5-2.5.37-8.1.74-16.2,1.1-24.31.18-3.97.36-7.94.54-11.91s.51-8.04.34-12.04c-.33-7.65-3.69-14.67-5.45-22.03s-2.67-14.96-2.67-22.56c0-8.56,1.16-17.05,3.36-25.32l-3.08,1.75c6.2,1.34,12.83,1.64,18.75,4.06.4.16-.5-.25.1.05.12.06.24.12.36.18.22.11.43.25.64.37.6.35-.18-.22.18.14.08.08.27.33.03,0-.29-.39.08.21.11.27.98,2.33,1.11,4.8,1.08,7.3-.06,5.88-.36,11.77-.66,17.64-1.2,23.45-3.34,46.89-2.77,70.39.16,6.59.54,13.17,1.2,19.73.06.61.32,1.94,0,2.18-.8.59-2.54.53-3.49.64-3.25.38-6.51.66-9.77.86s-3.22,5.2,0,5Z"/>
      </g>
    </g>
  </g>
</svg>