<?xml version="1.0" encoding="UTF-8"?>
<svg id="Layer_2" xmlns="http://www.w3.org/2000/svg" viewBox="0 0 51.68 134.18">
  <defs>
    <style>
      .cls-1 {
        fill: #eaeaea;
      }

      .cls-2 {
        fill: #231f20;
      }
    </style>
  </defs>
  <g id="Layer_1-2" data-name="Layer_1">
    <g>
      <g>
        <path class="cls-1" d="M39.65,131.24c-2.07-.23-4.13-.59-6.18-1.06-.58-.14-1.2-.3-1.65-.76-.82-.84-.81-2.33-.74-3.62,2.02-35.66-.69-71.43-1.15-107.16-.04-3.4-.06-6.87.81-10.11s8.95-4.91,11.65-6c2.73,18.84,2.46,38.29-.82,57.02-.54,3.1-1.17,6.19-1.47,9.33-.36,3.75-.27,7.54-.18,11.32.34,13.72.67,27.45,1.01,41.17,3.43-.22,6.85,2.45,8.03,6.25.27.86.42,1.87.03,2.67-.54,1.12-1.82,1.29-2.91,1.29-2.15.02-4.3-.1-6.43-.34Z"/>
        <path class="cls-2" d="M39.65,128.74c-1.13-.13-2.26-.31-3.38-.52-.55-.11-1.11-.22-1.66-.34-.27-.06-.55-.14-.82-.19-.34-.07-.27-.21-.19-.03-.16-.37-.03-1.25-.01-1.67.05-1.22.13-2.43.19-3.64.24-5.04.4-10.07.48-15.11.16-9.92.06-19.84-.17-29.76-.46-19.92-1.48-39.83-1.65-59.75-.02-2.54-.03-5.13.51-7.63.06-.26.45-1.39.18-.83.05-.09.14-.26.21-.34-.25.26-.05.08.11-.06.37-.33-.01-.07.43-.36.33-.22.67-.42,1.03-.61,2.46-1.31,5.45-1.87,8.16-2.95l-3.08-1.75c2.16,15.02,2.33,30.35.66,45.42-.42,3.75-.97,7.48-1.64,11.19s-1.38,7.64-1.57,11.52c-.39,7.72.16,15.53.35,23.25.22,8.93.44,17.86.66,26.79.03,1.31,1.12,2.55,2.5,2.5,2.5-.09,4.63,1.74,5.49,4.05.1.27.16.9.31,1.13.12.19-.32.38.12-.01.15-.13.05.06-.23.02.15.02-.47.02-.55.02-2.14.05-4.3-.11-6.43-.34-1.34-.15-2.5,1.25-2.5,2.5,0,1.47,1.15,2.35,2.5,2.5,2.67.29,5.82.78,8.47.1,3-.76,4.05-3.71,3.37-6.51-1.15-4.7-5.6-8.65-10.54-8.47l2.5,2.5c-.19-7.94-.39-15.87-.58-23.81s-.62-15.85-.5-23.77,2.05-15.19,3-22.78,1.42-15.35,1.4-23.05c-.02-8.73-.71-17.44-1.95-26.09-.18-1.24-1.93-2.2-3.08-1.75-2.79,1.11-5.72,1.76-8.47,3.02-1.33.61-2.68,1.4-3.66,2.5-1.42,1.62-1.66,3.76-1.91,5.82-.63,5.14-.21,10.46-.1,15.62s.27,10.59.43,15.89c.67,21.33,1.58,42.67,1.24,64.01-.1,6.03-.29,12.06-.63,18.09-.14,2.52-.09,5.41,2.38,6.86,1.17.68,2.62.87,3.92,1.12,1.56.3,3.14.52,4.71.7,1.34.16,2.5-1.26,2.5-2.5,0-1.48-1.15-2.34-2.5-2.5Z"/>
      </g>
      <g>
        <path class="cls-1" d="M12.04,131.24c2.07-.23,4.13-.59,6.18-1.06.58-.14,1.2-.3,1.65-.76.82-.84.81-2.33.74-3.62-2.02-35.66.69-71.43,1.15-107.16.04-3.4.06-6.87-.81-10.11S11.99,3.62,9.29,2.53c-2.73,18.84-2.46,38.29.82,57.02.54,3.1,1.17,6.19,1.47,9.33.36,3.75.27,7.54.18,11.32-.34,13.72-.67,27.45-1.01,41.17-3.43-.22-6.85,2.45-8.03,6.25-.27.86-.42,1.87-.03,2.67.54,1.12,1.82,1.29,2.91,1.29,2.15.02,4.3-.1,6.43-.34Z"/>
        <path class="cls-2" d="M12.04,133.74c2.48-.29,5.17-.53,7.54-1.34,2.56-.87,3.55-3.14,3.55-5.7,0-5.16-.49-10.35-.61-15.51-.26-10.66-.18-21.33.05-31.99s.62-21.51.97-32.26.91-21.05.71-31.55c-.05-2.56-.13-5.45-1.03-7.88-.65-1.77-2.18-2.99-3.79-3.87C16.44,2,13.1,1.36,9.95.11c-1.15-.45-2.9.51-3.08,1.75-2.2,15.33-2.56,30.87-.89,46.28.42,3.88.96,7.75,1.62,11.6s1.39,7.35,1.61,11.1c.23,3.94.06,7.89-.03,11.84s-.19,7.94-.29,11.91c-.22,8.93-.44,17.86-.66,26.79l2.5-2.5c-4.94-.18-9.39,3.77-10.54,8.47-.67,2.76.31,5.62,3.22,6.47,1.25.37,2.63.29,3.92.26,1.57-.04,3.14-.15,4.7-.32,1.34-.15,2.5-1.05,2.5-2.5,0-1.24-1.15-2.65-2.5-2.5-2.05.22-4.12.35-6.19.34-.19,0-.8-.02-.8-.02-.08.02-.4-.17-.23-.02.3.28-.03.19.12.01.18-.22.21-.86.31-1.13.87-2.31,2.98-4.15,5.49-4.05,1.37.05,2.47-1.19,2.5-2.5.19-7.94.39-15.87.58-23.81s.57-15.52.51-23.27-1.98-15.18-2.95-22.8-1.44-15.02-1.46-22.57c-.02-8.6.55-17.21,1.77-25.72l-3.08,1.75c2.32.92,5.03,1.51,7.14,2.45.63.28,1.25.6,1.83.97.1.06.7.53.39.26.13.11.7.65.36.29.07.08.16.24.21.34-.04-.08-.15-.49-.04-.06.14.52.25,1.04.35,1.56.21,1.14.29,2.3.34,3.46.2,4.85-.05,9.74-.16,14.59s-.26,9.93-.42,14.89c-.63,19.93-1.46,39.85-1.26,59.79.06,5.62.19,11.24.44,16.85.06,1.32.12,2.64.19,3.96.05,1.01.25,2.14.07,3.14-.06.35.4.1-.19.23s-1.18.27-1.77.39c-1.36.28-2.72.5-4.1.66s-2.5,1.04-2.5,2.5c0,1.23,1.15,2.66,2.5,2.5Z"/>
      </g>
    </g>
  </g>
</svg>