<?xml version="1.0" encoding="UTF-8"?>
<svg id="Layer_2" xmlns="http://www.w3.org/2000/svg" viewBox="0 0 48.64 118.68">
  <defs>
    <style>
      .cls-1, .cls-2 {
        fill: #eaeaea;
      }

      .cls-3 {
        fill: #231f20;
      }

      .cls-2 {
        stroke: #231f20;
        stroke-miterlimit: 10;
        stroke-width: 5px;
      }
    </style>
  </defs>
  <g id="Layer_1-2" data-name="Layer_1">
    <g>
      <g>
        <path class="cls-1" d="M11.28,23.02c-3.22-6.18-.96-14.63,4.9-18.4,5.85-3.77,14.45-2.35,18.81,3.08,4.35,5.43,3.89,14.11-1,19.06-1.41,1.43-3.12,2.49-4.98,3.18"/>
        <path class="cls-3" d="M13.44,21.76c-1.57-3.11-1.47-6.95-.04-10.1,1.54-3.4,4.41-5.75,8.08-6.47,3.36-.66,7.15.26,9.86,2.38,3,2.34,4.31,6.12,4.12,9.84-.23,4.45-2.91,8.5-7.11,10.12-1.26.49-2.13,1.68-1.75,3.08.33,1.2,1.81,2.24,3.08,1.75,5.37-2.07,9.37-6.48,10.44-12.21.98-5.22-.22-10.71-3.8-14.72C32.94,1.62,27.5-.35,22.47.05s-9.84,3.11-12.59,7.6c-3.06,5.01-3.39,11.39-.75,16.63,1.45,2.87,5.76.35,4.32-2.52h0Z"/>
      </g>
      <g>
        <path class="cls-1" d="M11.08,9.32c-3.42,6.07-1.7,14.54,3.84,18.76,1.33,1.02,2.85,1.76,4.45,2.22"/>
        <path class="cls-3" d="M8.92,8.06c-2.34,4.26-2.73,9.47-1.12,14.06,1.79,5.12,5.68,9.02,10.91,10.59,3.09.93,4.41-3.89,1.33-4.82-1.95-.59-3.65-1.61-5.03-3.11-1.05-1.14-2-2.81-2.48-4.26-1.11-3.35-.95-6.91.71-9.94,1.55-2.82-2.77-5.35-4.32-2.52h0Z"/>
      </g>
      <path class="cls-2" d="M46.14,46.57v62.91c0,3.7-3,6.7-6.7,6.7H9.21c-3.71,0-6.71-3-6.71-6.71v-62.9c0-3.7,3-6.7,6.7-6.7h6.55c1.67,0,3.18-.98,3.87-2.5.25-.54.41-1.05.47-1.45.15-1.24-.2-3.65-.72-5.62,3.13.91,6.58.78,9.64-.36-.42,2.1.04,5.08,1.12,7.43.7,1.53,2.26,2.5,3.95,2.5h5.37c3.7,0,6.7,3,6.7,6.7Z"/>
    </g>
  </g>
</svg>