<?xml version="1.0" encoding="UTF-8"?>
<svg id="Layer_2" xmlns="http://www.w3.org/2000/svg" viewBox="0 0 64.75 118.64">
  <defs>
    <style>
      .cls-1, .cls-2 {
        fill: #eaeaea;
      }

      .cls-3 {
        fill: #231f20;
      }

      .cls-2 {
        stroke: #231f20;
        stroke-miterlimit: 10;
        stroke-width: 5px;
      }
    </style>
  </defs>
  <g id="Layer_1-2" data-name="Layer_1">
    <g>
      <g>
        <path class="cls-1" d="M19.72,9.28c-3.42,6.06-1.7,14.53,3.84,18.76s14.18,3.64,19.07-1.32,5.36-13.63,1-19.06S30.66.81,24.81,4.58s-8.11,12.22-4.9,18.39"/>
        <path class="cls-3" d="M17.56,8.02c-3.81,6.96-2.27,16.5,3.97,21.58s16.13,4.91,22.26-.55,7.06-15.3,2.58-21.86S32.34-1.87,24.97,1.63c-8.2,3.89-11.18,14.74-7.21,22.6.61,1.21,2.31,1.55,3.42.9,1.23-.72,1.51-2.21.9-3.42-2.4-4.75-.9-11.34,3.47-14.61s11.37-2.68,15.33,1.24,4.27,11.09.87,15.61-10.39,5.68-15.27,3.01c-5.68-3.11-7.63-10.88-4.6-16.41,1.55-2.82-2.77-5.35-4.32-2.52h0Z"/>
      </g>
      <path class="cls-2" d="M62.25,46.53l-13.53,35.25,6.17,27.66c0,3.7-3,6.7-6.7,6.7h-30.23c-3.71,0-6.71-3-6.71-6.71l6.84-28.19L2.5,46.53c0-3.7,3-6.7,6.7-6.7h15.3c1.67,0,3.18-.98,3.87-2.5.25-.54.41-1.05.47-1.45.15-1.24-.2-3.65-.72-5.62,3.13.91,6.58.78,9.64-.36-.42,2.1.04,5.08,1.12,7.43.7,1.53,2.26,2.5,3.95,2.5h12.73c3.7,0,6.7,3,6.7,6.7Z"/>
    </g>
  </g>
</svg>